<svg width="222" height="60" viewBox="0 0 222 60" fill="none" xmlns="http://www.w3.org/2000/svg">
<path fill-rule="evenodd" clip-rule="evenodd" d="M11.7359 13.6401C5.10671 13.8314 0 19.0156 0 25.1621C0 31.5363 5.44851 36.7037 12.1695 36.7037L14.1738 36.2775V48.231H17.0518L17.2486 35.5052L18.7903 29.3735L12.6481 24.5101C12.1976 24.1533 12.0264 23.5888 12.2117 23.0741C12.3982 22.5604 12.9026 22.1961 13.4983 22.1464L21.6251 21.4803L24.8363 14.6915C25.0719 14.1927 25.6116 13.8708 26.2121 13.8708C26.8125 13.8708 27.352 14.1927 27.5891 14.6915L30.8003 21.4803L38.9258 22.1464C39.5215 22.1951 40.0271 22.5595 40.2124 23.0741C40.3978 23.5899 40.2263 24.1533 39.776 24.5101L33.6338 29.3735L35.26 35.8409L35.2673 35.8425V48.231H38.1452V36.4707L39.2128 36.7037C45.9736 36.7037 51.3824 31.4025 51.3824 25.1621C51.3824 19.6791 47.4081 15.2639 42.4973 14.0463C40.4505 7.71657 34.0327 3.36133 27.0433 3.36133C20.054 3.36133 14.0275 7.61481 11.7359 13.6401ZM25.7965 32.7728L24.4924 33.8411L24.8083 52.8638H27.6862L27.3704 33.8411L25.7965 32.7728ZM19.1576 36.5787L22.3515 34.9291V55.6014H19.1576V36.5787ZM32.6701 36.4032L29.7921 34.6133L30.1079 55.4259H32.9859L32.6701 36.4032Z" fill="url(#paint0_linear_139_582)"/>
<path d="M20.7175 56.639C21.7836 56.639 22.6478 55.7748 22.6478 54.7087C22.6478 53.6426 21.7836 52.7783 20.7175 52.7783C19.6514 52.7783 18.7871 53.6426 18.7871 54.7087C18.7871 55.7748 19.6514 56.639 20.7175 56.639Z" fill="#DA5D2F"/>
<path d="M26.2328 54.0467C27.2989 54.0467 28.1632 53.1825 28.1632 52.1164C28.1632 51.0503 27.2989 50.186 26.2328 50.186C25.1667 50.186 24.3025 51.0503 24.3025 52.1164C24.3025 53.1825 25.1667 54.0467 26.2328 54.0467Z" fill="#D9D9D9"/>
<path d="M31.6928 56.639C32.7589 56.639 33.6231 55.7748 33.6231 54.7087C33.6231 53.6426 32.7589 52.7783 31.6928 52.7783C30.6267 52.7783 29.7625 53.6426 29.7625 54.7087C29.7625 55.7748 30.6267 56.639 31.6928 56.639Z" fill="#DA5D2F"/>
<path d="M36.9324 49.6346C37.9985 49.6346 38.8628 48.7704 38.8628 47.7043C38.8628 46.6382 37.9985 45.7739 36.9324 45.7739C35.8663 45.7739 35.0021 46.6382 35.0021 47.7043C35.0021 48.7704 35.8663 49.6346 36.9324 49.6346Z" fill="url(#paint1_linear_139_582)"/>
<path d="M26.2328 54.0467C27.2989 54.0467 28.1632 53.1825 28.1632 52.1164C28.1632 51.0503 27.2989 50.186 26.2328 50.186C25.1667 50.186 24.3025 51.0503 24.3025 52.1164C24.3025 53.1825 25.1667 54.0467 26.2328 54.0467Z" fill="url(#paint2_linear_139_582)"/>
<path d="M15.6435 49.6346C16.7096 49.6346 17.5738 48.7704 17.5738 47.7043C17.5738 46.6382 16.7096 45.7739 15.6435 45.7739C14.5774 45.7739 13.7131 46.6382 13.7131 47.7043C13.7131 48.7704 14.5774 49.6346 15.6435 49.6346Z" fill="url(#paint3_linear_139_582)"/>
<path d="M9.74207 39.1558H22.3169V41.7479H9.74207V39.1558Z" fill="#DA5D2F"/>
<path d="M42.4478 39.1558H29.9281V41.7479H42.4478V39.1558Z" fill="#DA5D2F"/>
<path d="M9.02508 42.4095C10.0912 42.4095 10.9554 41.5453 10.9554 40.4792C10.9554 39.4131 10.0912 38.5488 9.02508 38.5488C7.95897 38.5488 7.09473 39.4131 7.09473 40.4792C7.09473 41.5453 7.95897 42.4095 9.02508 42.4095Z" fill="#DA5D2F"/>
<path d="M42.503 42.4095C43.5691 42.4095 44.4333 41.5453 44.4333 40.4792C44.4333 39.4131 43.5691 38.5488 42.503 38.5488C41.4369 38.5488 40.5726 39.4131 40.5726 40.4792C40.5726 41.5453 41.4369 42.4095 42.503 42.4095Z" fill="#DA5D2F"/>
<path d="M73.0143 41V19.818H79.0323C80.2563 19.818 81.3103 19.9427 82.1943 20.192C83.0783 20.4413 83.8037 20.7927 84.3703 21.246C84.9597 21.6993 85.3903 22.2433 85.6623 22.878C85.9343 23.5127 86.0703 24.204 86.0703 24.952C86.0703 25.6093 85.9457 26.2553 85.6963 26.89C85.4697 27.5247 85.1183 28.08 84.6423 28.556C84.189 29.032 83.6223 29.3947 82.9423 29.644C83.5317 29.848 84.0643 30.1313 84.5403 30.494C85.039 30.8567 85.4583 31.2873 85.7983 31.786C86.161 32.262 86.433 32.7833 86.6143 33.35C86.8183 33.894 86.9203 34.4607 86.9203 35.05C86.9203 35.934 86.7617 36.75 86.4443 37.498C86.127 38.2233 85.6397 38.8467 84.9823 39.368C84.3477 39.8893 83.5317 40.2973 82.5343 40.592C81.537 40.864 80.3583 41 78.9983 41H73.0143ZM75.3603 38.926H79.4063C80.4037 38.926 81.2763 38.8013 82.0243 38.552C82.7723 38.28 83.3503 37.8493 83.7583 37.26C84.189 36.6707 84.4043 35.8887 84.4043 34.914C84.4043 34.0753 84.223 33.3387 83.8603 32.704C83.4977 32.0467 82.9083 31.5367 82.0923 31.174C81.299 30.7887 80.211 30.596 78.8283 30.596H75.3603V38.926ZM75.3603 28.59H78.6923C79.939 28.59 80.925 28.4427 81.6503 28.148C82.3757 27.8533 82.897 27.4567 83.2143 26.958C83.5317 26.4367 83.6903 25.8587 83.6903 25.224C83.6903 24.748 83.5997 24.306 83.4183 23.898C83.2597 23.49 82.999 23.1387 82.6363 22.844C82.2737 22.5267 81.7977 22.2773 81.2083 22.096C80.619 21.9147 79.905 21.824 79.0663 21.824H75.3603V28.59ZM91.9863 41V19.818H98.2423C99.9197 19.818 101.268 20.0673 102.288 20.566C103.331 21.0647 104.09 21.7673 104.566 22.674C105.042 23.5807 105.28 24.646 105.28 25.87C105.28 26.6633 105.099 27.4567 104.736 28.25C104.396 29.0433 103.898 29.7347 103.24 30.324C102.606 30.9133 101.846 31.3213 100.962 31.548L105.858 41H103.206L98.5143 31.65H94.4003V41H91.9863ZM94.4003 29.542H98.5143C100.033 29.542 101.132 29.2133 101.812 28.556C102.492 27.876 102.832 26.9807 102.832 25.87C102.832 25.1673 102.685 24.5327 102.39 23.966C102.096 23.3767 101.631 22.912 100.996 22.572C100.362 22.232 99.5343 22.062 98.5143 22.062H94.4003V29.542ZM117.282 41.374C115.673 41.374 114.302 40.9547 113.168 40.116C112.035 39.2773 111.174 38.0533 110.584 36.444C109.995 34.812 109.7 32.84 109.7 30.528C109.7 28.284 109.995 26.3573 110.584 24.748C111.174 23.116 112.035 21.8693 113.168 21.008C114.302 20.124 115.673 19.682 117.282 19.682C118.914 19.682 120.286 20.124 121.396 21.008C122.53 21.8693 123.391 23.116 123.98 24.748C124.57 26.3573 124.864 28.284 124.864 30.528C124.864 32.84 124.57 34.812 123.98 36.444C123.391 38.0533 122.53 39.2773 121.396 40.116C120.286 40.9547 118.914 41.374 117.282 41.374ZM117.282 39.3C118.37 39.3 119.288 38.96 120.036 38.28C120.807 37.6 121.396 36.614 121.804 35.322C122.212 34.0073 122.416 32.4093 122.416 30.528C122.416 28.7373 122.212 27.196 121.804 25.904C121.396 24.5893 120.807 23.5693 120.036 22.844C119.288 22.1187 118.37 21.756 117.282 21.756C116.217 21.756 115.299 22.1187 114.528 22.844C113.758 23.5693 113.168 24.5893 112.76 25.904C112.352 27.196 112.148 28.7373 112.148 30.528C112.148 32.4093 112.352 34.0073 112.76 35.322C113.168 36.614 113.758 37.6 114.528 38.28C115.299 38.96 116.217 39.3 117.282 39.3ZM135.88 41.34C134.498 41.34 133.251 41.1133 132.14 40.66C131.052 40.2067 130.089 39.538 129.25 38.654L130.474 36.512L130.61 36.206L130.848 36.342C130.894 36.5007 130.95 36.682 131.018 36.886C131.086 37.0673 131.245 37.294 131.494 37.566C132.084 38.0647 132.764 38.4613 133.534 38.756C134.328 39.0507 135.223 39.198 136.22 39.198C136.855 39.198 137.433 39.1073 137.954 38.926C138.498 38.722 138.963 38.4613 139.348 38.144C139.756 37.804 140.062 37.4187 140.266 36.988C140.493 36.5347 140.606 36.0587 140.606 35.56C140.606 35.1747 140.561 34.8233 140.47 34.506C140.402 34.1887 140.255 33.9053 140.028 33.656C139.824 33.384 139.541 33.1233 139.178 32.874C138.816 32.602 138.351 32.3187 137.784 32.024C137.218 31.7293 136.538 31.412 135.744 31.072C134.271 30.5053 133.104 29.8933 132.242 29.236C131.404 28.556 130.803 27.842 130.44 27.094C130.1 26.346 129.93 25.5753 129.93 24.782C129.93 23.7393 130.191 22.8327 130.712 22.062C131.234 21.2687 131.97 20.6567 132.922 20.226C133.897 19.7727 135.053 19.546 136.39 19.546C137.161 19.546 137.898 19.6593 138.6 19.886C139.326 20.09 139.994 20.3847 140.606 20.77C141.241 21.1553 141.796 21.6313 142.272 22.198L140.946 23.966L140.742 24.238L140.538 24.102C140.516 23.9207 140.47 23.7393 140.402 23.558C140.334 23.3767 140.176 23.15 139.926 22.878C139.382 22.3567 138.804 22.0053 138.192 21.824C137.58 21.62 136.855 21.518 136.016 21.518C135.45 21.518 134.94 21.5973 134.486 21.756C134.056 21.9147 133.682 22.1413 133.364 22.436C133.047 22.7307 132.798 23.0707 132.616 23.456C132.458 23.8187 132.378 24.204 132.378 24.612C132.378 24.9973 132.424 25.3487 132.514 25.666C132.605 25.9833 132.764 26.2893 132.99 26.584C133.217 26.8787 133.523 27.1733 133.908 27.468C134.316 27.7627 134.815 28.0573 135.404 28.352C136.016 28.6467 136.753 28.964 137.614 29.304C138.657 29.7347 139.518 30.1653 140.198 30.596C140.901 31.004 141.445 31.446 141.83 31.922C142.238 32.3753 142.522 32.874 142.68 33.418C142.862 33.962 142.952 34.5627 142.952 35.22C142.952 36.1947 142.703 37.158 142.204 38.11C141.728 39.0393 140.969 39.81 139.926 40.422C138.884 41.034 137.535 41.34 135.88 41.34ZM153.254 41V21.926H147.236V19.784H161.924V21.926H155.668V41H153.254ZM177.02 34.812H169.336L169.812 32.976H176.476L177.02 34.812ZM173.348 24.884L167.772 41H165.426L173.246 19.444H173.518L181.338 41H178.89L173.348 24.884ZM185.486 41V19.818H191.742C193.42 19.818 194.768 20.0673 195.788 20.566C196.831 21.0647 197.59 21.7673 198.066 22.674C198.542 23.5807 198.78 24.646 198.78 25.87C198.78 26.6633 198.599 27.4567 198.236 28.25C197.896 29.0433 197.398 29.7347 196.74 30.324C196.106 30.9133 195.346 31.3213 194.462 31.548L199.358 41H196.706L192.014 31.65H187.9V41H185.486ZM187.9 29.542H192.014C193.533 29.542 194.632 29.2133 195.312 28.556C195.992 27.876 196.332 26.9807 196.332 25.87C196.332 25.1673 196.185 24.5327 195.89 23.966C195.596 23.3767 195.131 22.912 194.496 22.572C193.862 22.232 193.034 22.062 192.014 22.062H187.9V29.542Z" fill="#181819"/>
<defs>
<linearGradient id="paint0_linear_139_582" x1="25.6912" y1="3.36133" x2="25.6912" y2="55.6014" gradientUnits="userSpaceOnUse">
<stop offset="0.0384615" stop-color="#F29C1F"/>
<stop offset="0.442308" stop-color="#DA5D2F"/>
<stop offset="0.956731" stop-color="#DA5D2F"/>
</linearGradient>
<linearGradient id="paint1_linear_139_582" x1="36.9324" y1="45.7739" x2="36.9324" y2="49.6346" gradientUnits="userSpaceOnUse">
<stop stop-color="#C6D5C1"/>
<stop offset="1" stop-color="#F29C1F"/>
</linearGradient>
<linearGradient id="paint2_linear_139_582" x1="26.2328" y1="50.186" x2="26.2328" y2="54.0467" gradientUnits="userSpaceOnUse">
<stop stop-color="#C6D5C1"/>
<stop offset="1" stop-color="#F29C1F"/>
</linearGradient>
<linearGradient id="paint3_linear_139_582" x1="15.6435" y1="45.7739" x2="15.6435" y2="49.6346" gradientUnits="userSpaceOnUse">
<stop stop-color="#C6D5C1"/>
<stop offset="1" stop-color="#F29C1F"/>
</linearGradient>
</defs>
</svg>
