<svg width="932" height="966" viewBox="0 0 932 966" fill="none" xmlns="http://www.w3.org/2000/svg">
    <path fill-rule="evenodd" clip-rule="evenodd" d="M213.152 186.369C92.9555 189.838 0.363525 283.834 0.363525 395.28C0.363525 510.853 99.1529 604.545 221.014 604.545L257.355 596.817V813.552H309.537L313.105 582.815L341.059 471.638L229.692 383.458C221.523 376.988 218.419 366.753 221.78 357.421C225.16 348.107 234.306 341.501 245.108 340.6L392.458 328.523L450.682 205.432C454.954 196.388 464.739 190.552 475.626 190.552C486.513 190.552 496.294 196.388 500.593 205.432L558.818 328.523L706.144 340.6C716.946 341.483 726.112 348.09 729.472 357.421C732.833 366.774 729.725 376.988 721.56 383.458L610.193 471.638L639.678 588.902L639.81 588.93V813.552H691.991V600.32L711.349 604.545C833.932 604.545 932 508.427 932 395.28C932 295.864 859.941 215.811 770.9 193.734C733.79 78.9668 617.425 0 490.698 0C363.972 0 254.703 77.1217 213.152 186.369ZM468.091 533.273L444.446 552.643L450.173 897.552H502.355L496.628 552.643L468.091 533.273ZM347.719 602.279L405.628 572.37V947.188H347.719V602.279ZM592.719 599.097L540.537 566.643L546.264 944.006H598.446L592.719 599.097Z" fill="url(#paint0_linear_2_52)"/>
    <circle cx="376" cy="931" r="40" fill="#271E55"/>
    <circle cx="476" cy="884" r="40" fill="#D9D9D9"/>
    <circle cx="575" cy="931" r="40" fill="#271E55"/>
    <circle cx="670" cy="804" r="40" fill="url(#paint1_linear_2_52)"/>
    <circle cx="476" cy="884" r="40" fill="url(#paint2_linear_2_52)"/>
    <circle cx="284" cy="804" r="40" fill="url(#paint3_linear_2_52)"/>
    <path d="M177 649H405V696H177V649Z" fill="#421C5A"/>
    <rect x="543" y="649" width="227" height="47" fill="#421C5A"/>
    <circle cx="164" cy="673" r="40" fill="#421C5A"/>
    <circle cx="771" cy="673" r="40" fill="#421C5A"/>
    <defs>
    <linearGradient id="paint0_linear_2_52" x1="466.182" y1="0" x2="466.182" y2="947.188" gradientUnits="userSpaceOnUse">
    <stop stop-color="#FE1299"/>
    <stop offset="0.127333" stop-color="#DC148B"/>
    <stop offset="0.422333" stop-color="#8E196A"/>
    <stop offset="0.777333" stop-color="#271E55"/>
    </linearGradient>
    <linearGradient id="paint1_linear_2_52" x1="670" y1="769" x2="670" y2="839" gradientUnits="userSpaceOnUse">
    <stop stop-color="#EB168B"/>
    <stop offset="1" stop-color="#B40D6C"/>
    </linearGradient>
    <linearGradient id="paint2_linear_2_52" x1="476" y1="849" x2="476" y2="919" gradientUnits="userSpaceOnUse">
    <stop stop-color="#EB168B"/>
    <stop offset="1" stop-color="#B40D6C"/>
    </linearGradient>
    <linearGradient id="paint3_linear_2_52" x1="284" y1="769" x2="284" y2="839" gradientUnits="userSpaceOnUse">
    <stop stop-color="#EB168B"/>
    <stop offset="1" stop-color="#B40D6C"/>
    </linearGradient>
    </defs>
    </svg>
